<?xml version="1.0" encoding="iso-8859-1"?>
<!-- Uploaded to: SVG Repo, www.svgrepo.com, Generator: SVG Repo Mixer Tools -->
<svg fill="white" height="800px" width="800px" version="1.1" id="Layer_1" xmlns="http://www.w3.org/2000/svg" xmlns:xlink="http://www.w3.org/1999/xlink" 
	 viewBox="0 0 512 512" xml:space="preserve">
<g>
	<g>
		<path d="M401.067,0H110.933C49.766,0,0,49.766,0,110.933v290.133C0,462.234,49.766,512,110.933,512h290.133
			C462.234,512,512,462.234,512,401.067V110.933C512,49.766,462.234,0,401.067,0z M193.801,347.349
			c-1.664,1.664-3.849,2.5-6.033,2.5c-2.185,0-4.369-0.836-6.033-2.5l-84.796-84.804c-1.058-0.862-1.903-1.98-2.449-3.277
			c-1.323-3.191-0.666-6.861,1.775-9.301l85.393-85.385c3.337-3.337,8.738-3.337,12.066,0c3.337,3.328,3.337,8.73,0,12.066
			l-79.283,79.275l79.36,79.352C197.137,338.611,197.137,344.013,193.801,347.349z M289.775,173.116l-51.2,170.667
			c-1.109,3.703-4.497,6.084-8.175,6.084c-0.811,0-1.63-0.111-2.449-0.358c-4.514-1.357-7.074-6.11-5.726-10.624l51.2-170.667
			c1.348-4.514,6.093-7.1,10.624-5.726C288.572,163.849,291.123,168.602,289.775,173.116z M416.068,262.033l-85.393,85.385
			c-1.664,1.673-3.849,2.5-6.033,2.5c-2.185,0-4.369-0.828-6.033-2.5c-3.336-3.328-3.336-8.73,0-12.066l79.283-79.275l-79.36-79.36
			c-3.328-3.328-3.328-8.73,0-12.066c3.337-3.328,8.738-3.328,12.066,0l84.804,84.804c1.058,0.862,1.903,1.98,2.441,3.277
			C419.166,255.923,418.509,259.593,416.068,262.033z"/>
	</g>
</g>
</svg>